<svg width="799" height="152" viewBox="0 0 799 152" fill="none" xmlns="http://www.w3.org/2000/svg">
<path d="M21.888 36.88V58H15.328V36.88H21.888ZM8.48 36.88V58H1.952V36.88H8.48ZM18.912 44.912V49.808H5.12V44.912H18.912ZM44.5798 36.88V41.776H37.8598V58H31.3318V41.776H24.5478V36.88H44.5798ZM73.1525 36.88V58H67.3925V49.552L67.5205 42.736H67.4565L62.8165 58H57.5685L52.9925 42.736H52.8965L53.0245 49.552V58H47.2645V36.88H56.4805L59.3285 46.896L60.3845 51.088H60.4485L61.5045 46.896L64.3525 36.88H73.1525ZM83.5425 53.104H93.5905V58H77.0145V36.88H83.5425V53.104Z" fill="#818181"/>
<path d="M21.248 94.728C20.864 96.2853 20.2133 97.5547 19.296 98.536C18.4 99.5173 17.3013 100.232 16 100.68C14.72 101.107 13.3013 101.32 11.744 101.32C9.568 101.32 7.68 100.893 6.08 100.04C4.50133 99.1653 3.28533 97.9173 2.432 96.296C1.57867 94.6747 1.152 92.7227 1.152 90.44C1.152 88.1573 1.57867 86.2053 2.432 84.584C3.28533 82.9627 4.50133 81.7253 6.08 80.872C7.68 79.9973 9.55733 79.56 11.712 79.56C13.248 79.56 14.656 79.7733 15.936 80.2C17.2373 80.6267 18.336 81.288 19.232 82.184C20.128 83.08 20.736 84.2427 21.056 85.672L15.392 87.944C15.1573 86.5787 14.7413 85.672 14.144 85.224C13.568 84.776 12.8213 84.552 11.904 84.552C11.0507 84.552 10.3147 84.776 9.696 85.224C9.09867 85.6507 8.64 86.3013 8.32 87.176C8.02133 88.0293 7.872 89.1173 7.872 90.44C7.872 91.7413 8.01067 92.8293 8.288 93.704C8.58667 94.5787 9.03467 95.24 9.632 95.688C10.2507 96.1147 11.0507 96.328 12.032 96.328C12.9067 96.328 13.6427 96.072 14.24 95.56C14.8373 95.048 15.232 94.248 15.424 93.16L21.248 94.728ZM32.4388 79.56C34.4441 79.56 36.2254 79.8373 37.7828 80.392C39.3401 80.9253 40.7054 81.7467 41.8788 82.856L39.0308 87.048C38.0708 86.2373 37.0468 85.608 35.9588 85.16C34.8921 84.6907 33.7081 84.456 32.4068 84.456C31.7454 84.456 31.2121 84.52 30.8068 84.648C30.4014 84.776 30.1028 84.9573 29.9108 85.192C29.7401 85.4053 29.6548 85.6507 29.6548 85.928C29.6548 86.2693 29.8574 86.5467 30.2628 86.76C30.6894 86.9733 31.2761 87.1653 32.0228 87.336L35.2228 88.072C37.3561 88.5627 38.9454 89.288 39.9908 90.248C41.0361 91.1867 41.5588 92.4773 41.5588 94.12C41.5588 95.72 41.1534 97.0533 40.3428 98.12C39.5534 99.1867 38.4654 99.9867 37.0788 100.52C35.6921 101.053 34.1241 101.32 32.3748 101.32C30.9881 101.32 29.6334 101.181 28.3108 100.904C27.0094 100.627 25.8148 100.232 24.7268 99.72C23.6388 99.1867 22.7001 98.5573 21.9108 97.832L24.7268 93.512C25.3028 94.0667 26.0068 94.568 26.8388 95.016C27.6708 95.4427 28.5561 95.784 29.4948 96.04C30.4334 96.296 31.3401 96.424 32.2148 96.424C32.8334 96.424 33.3348 96.3707 33.7188 96.264C34.1241 96.136 34.4121 95.9653 34.5828 95.752C34.7534 95.5387 34.8388 95.2827 34.8388 94.984C34.8388 94.6213 34.7001 94.3333 34.4228 94.12C34.1454 93.8853 33.6228 93.6827 32.8548 93.512L29.3348 92.712C28.1828 92.456 27.1161 92.104 26.1348 91.656C25.1534 91.208 24.3641 90.5893 23.7668 89.8C23.1908 88.9893 22.9028 87.9333 22.9028 86.632C22.9028 85.2453 23.2761 84.0187 24.0228 82.952C24.7694 81.8853 25.8574 81.0533 27.2868 80.456C28.7161 79.8587 30.4334 79.56 32.4388 79.56ZM53.1575 79.56C55.1628 79.56 56.9442 79.8373 58.5015 80.392C60.0588 80.9253 61.4242 81.7467 62.5975 82.856L59.7495 87.048C58.7895 86.2373 57.7655 85.608 56.6775 85.16C55.6108 84.6907 54.4268 84.456 53.1255 84.456C52.4642 84.456 51.9308 84.52 51.5255 84.648C51.1202 84.776 50.8215 84.9573 50.6295 85.192C50.4588 85.4053 50.3735 85.6507 50.3735 85.928C50.3735 86.2693 50.5762 86.5467 50.9815 86.76C51.4082 86.9733 51.9948 87.1653 52.7415 87.336L55.9415 88.072C58.0748 88.5627 59.6642 89.288 60.7095 90.248C61.7548 91.1867 62.2775 92.4773 62.2775 94.12C62.2775 95.72 61.8722 97.0533 61.0615 98.12C60.2722 99.1867 59.1842 99.9867 57.7975 100.52C56.4108 101.053 54.8428 101.32 53.0935 101.32C51.7068 101.32 50.3522 101.181 49.0295 100.904C47.7282 100.627 46.5335 100.232 45.4455 99.72C44.3575 99.1867 43.4188 98.5573 42.6295 97.832L45.4455 93.512C46.0215 94.0667 46.7255 94.568 47.5575 95.016C48.3895 95.4427 49.2748 95.784 50.2135 96.04C51.1522 96.296 52.0588 96.424 52.9335 96.424C53.5522 96.424 54.0535 96.3707 54.4375 96.264C54.8428 96.136 55.1308 95.9653 55.3015 95.752C55.4722 95.5387 55.5575 95.2827 55.5575 94.984C55.5575 94.6213 55.4188 94.3333 55.1415 94.12C54.8642 93.8853 54.3415 93.6827 53.5735 93.512L50.0535 92.712C48.9015 92.456 47.8348 92.104 46.8535 91.656C45.8722 91.208 45.0828 90.5893 44.4855 89.8C43.9095 88.9893 43.6215 87.9333 43.6215 86.632C43.6215 85.2453 43.9948 84.0187 44.7415 82.952C45.4882 81.8853 46.5762 81.0533 48.0055 80.456C49.4348 79.8587 51.1522 79.56 53.1575 79.56Z" fill="#818181"/>
<path d="M18.848 122.88V135.584C18.848 138.336 18.0373 140.48 16.416 142.016C14.7947 143.552 12.4693 144.32 9.44 144.32C7.22133 144.32 5.42933 143.925 4.064 143.136C2.72 142.347 1.80267 141.259 1.312 139.872C0.821333 138.485 0.714667 136.907 0.992 135.136L7.424 134.048C7.168 136.011 7.232 137.387 7.616 138.176C8.02133 138.944 8.72533 139.328 9.728 139.328C10.6453 139.328 11.3067 138.987 11.712 138.304C12.1173 137.6 12.32 136.501 12.32 135.008V122.88H18.848ZM30.6493 133.92C30.6493 133.323 30.4893 132.853 30.1693 132.512C29.8706 132.149 29.4226 131.968 28.8253 131.968C28.2706 131.968 27.7906 132.117 27.3853 132.416C27.0013 132.715 26.7559 133.28 26.6493 134.112L21.1773 133.12C21.3906 131.456 22.1693 130.133 23.5133 129.152C24.8573 128.171 26.7773 127.68 29.2733 127.68C30.9799 127.68 32.4093 127.925 33.5613 128.416C34.7346 128.885 35.6093 129.579 36.1853 130.496C36.7826 131.413 37.0813 132.512 37.0813 133.792V139.168C37.0813 140.021 37.4653 140.448 38.2333 140.448C38.5533 140.448 38.7986 140.405 38.9693 140.32L38.6493 143.808C37.9453 144.149 37.0706 144.32 36.0253 144.32C35.1079 144.32 34.2973 144.181 33.5933 143.904C32.8893 143.605 32.3346 143.179 31.9293 142.624C31.5239 142.069 31.3213 141.344 31.3213 140.448V140.192L31.9613 140.096C31.9613 140.949 31.6946 141.696 31.1613 142.336C30.6493 142.976 29.9666 143.467 29.1133 143.808C28.2813 144.149 27.3533 144.32 26.3293 144.32C25.2199 144.32 24.2706 144.149 23.4813 143.808C22.6919 143.467 22.0839 142.976 21.6573 142.336C21.2519 141.696 21.0493 140.917 21.0493 140C21.0493 138.827 21.4013 137.867 22.1053 137.12C22.8306 136.373 23.9186 135.861 25.3693 135.584L31.1613 134.368L31.1293 137.088L28.7613 137.632C28.2279 137.739 27.8333 137.92 27.5773 138.176C27.3426 138.411 27.2253 138.741 27.2253 139.168C27.2253 139.573 27.3639 139.893 27.6413 140.128C27.9186 140.341 28.2599 140.448 28.6653 140.448C28.9426 140.448 29.1986 140.405 29.4333 140.32C29.6679 140.235 29.8706 140.107 30.0413 139.936C30.2333 139.765 30.3826 139.552 30.4893 139.296C30.5959 139.04 30.6493 138.731 30.6493 138.368V133.92ZM50.1228 128H56.8108L51.3708 144H43.4668L38.0267 128H44.7788L47.4348 139.744L50.1228 128ZM66.6805 133.92C66.6805 133.323 66.5205 132.853 66.2005 132.512C65.9018 132.149 65.4538 131.968 64.8565 131.968C64.3018 131.968 63.8218 132.117 63.4165 132.416C63.0325 132.715 62.7872 133.28 62.6805 134.112L57.2085 133.12C57.4218 131.456 58.2005 130.133 59.5445 129.152C60.8885 128.171 62.8085 127.68 65.3045 127.68C67.0112 127.68 68.4405 127.925 69.5925 128.416C70.7658 128.885 71.6405 129.579 72.2165 130.496C72.8138 131.413 73.1125 132.512 73.1125 133.792V139.168C73.1125 140.021 73.4965 140.448 74.2645 140.448C74.5845 140.448 74.8298 140.405 75.0005 140.32L74.6805 143.808C73.9765 144.149 73.1018 144.32 72.0565 144.32C71.1392 144.32 70.3285 144.181 69.6245 143.904C68.9205 143.605 68.3658 143.179 67.9605 142.624C67.5552 142.069 67.3525 141.344 67.3525 140.448V140.192L67.9925 140.096C67.9925 140.949 67.7258 141.696 67.1925 142.336C66.6805 142.976 65.9978 143.467 65.1445 143.808C64.3125 144.149 63.3845 144.32 62.3605 144.32C61.2512 144.32 60.3018 144.149 59.5125 143.808C58.7232 143.467 58.1152 142.976 57.6885 142.336C57.2832 141.696 57.0805 140.917 57.0805 140C57.0805 138.827 57.4325 137.867 58.1365 137.12C58.8618 136.373 59.9498 135.861 61.4005 135.584L67.1925 134.368L67.1605 137.088L64.7925 137.632C64.2592 137.739 63.8645 137.92 63.6085 138.176C63.3738 138.411 63.2565 138.741 63.2565 139.168C63.2565 139.573 63.3952 139.893 63.6725 140.128C63.9498 140.341 64.2912 140.448 64.6965 140.448C64.9738 140.448 65.2298 140.405 65.4645 140.32C65.6992 140.235 65.9018 140.107 66.0725 139.936C66.2645 139.765 66.4138 139.552 66.5205 139.296C66.6272 139.04 66.6805 138.731 66.6805 138.368V133.92ZM85.72 122.56C87.7253 122.56 89.5067 122.837 91.064 123.392C92.6213 123.925 93.9867 124.747 95.16 125.856L92.312 130.048C91.352 129.237 90.328 128.608 89.24 128.16C88.1733 127.691 86.9893 127.456 85.688 127.456C85.0267 127.456 84.4933 127.52 84.088 127.648C83.6827 127.776 83.384 127.957 83.192 128.192C83.0213 128.405 82.936 128.651 82.936 128.928C82.936 129.269 83.1387 129.547 83.544 129.76C83.9707 129.973 84.5573 130.165 85.304 130.336L88.504 131.072C90.6373 131.563 92.2267 132.288 93.272 133.248C94.3173 134.187 94.84 135.477 94.84 137.12C94.84 138.72 94.4347 140.053 93.624 141.12C92.8347 142.187 91.7467 142.987 90.36 143.52C88.9733 144.053 87.4053 144.32 85.656 144.32C84.2693 144.32 82.9147 144.181 81.592 143.904C80.2907 143.627 79.096 143.232 78.008 142.72C76.92 142.187 75.9813 141.557 75.192 140.832L78.008 136.512C78.584 137.067 79.288 137.568 80.12 138.016C80.952 138.443 81.8373 138.784 82.776 139.04C83.7147 139.296 84.6213 139.424 85.496 139.424C86.1147 139.424 86.616 139.371 87 139.264C87.4053 139.136 87.6933 138.965 87.864 138.752C88.0347 138.539 88.12 138.283 88.12 137.984C88.12 137.621 87.9813 137.333 87.704 137.12C87.4267 136.885 86.904 136.683 86.136 136.512L82.616 135.712C81.464 135.456 80.3973 135.104 79.416 134.656C78.4347 134.208 77.6453 133.589 77.048 132.8C76.472 131.989 76.184 130.933 76.184 129.632C76.184 128.245 76.5573 127.019 77.304 125.952C78.0507 124.885 79.1387 124.053 80.568 123.456C81.9973 122.859 83.7147 122.56 85.72 122.56ZM105.255 127.68C107.047 127.68 108.519 127.936 109.671 128.448C110.844 128.939 111.729 129.589 112.327 130.4C112.924 131.189 113.265 132.021 113.351 132.896L107.367 134.72C107.303 133.845 107.121 133.195 106.823 132.768C106.545 132.341 106.097 132.128 105.479 132.128C104.945 132.128 104.497 132.256 104.135 132.512C103.772 132.768 103.505 133.184 103.335 133.76C103.164 134.336 103.079 135.104 103.079 136.064C103.079 137.045 103.175 137.813 103.367 138.368C103.58 138.923 103.868 139.317 104.231 139.552C104.615 139.765 105.041 139.872 105.511 139.872C105.937 139.872 106.279 139.787 106.535 139.616C106.812 139.424 107.036 139.157 107.207 138.816C107.377 138.453 107.484 138.027 107.527 137.536L113.319 139.36C113.233 140.277 112.86 141.109 112.199 141.856C111.559 142.603 110.673 143.2 109.543 143.648C108.412 144.096 107.079 144.32 105.543 144.32C103.708 144.32 102.119 144 100.775 143.36C99.4308 142.699 98.3961 141.749 97.6708 140.512C96.9454 139.275 96.5828 137.771 96.5828 136C96.5828 134.229 96.9454 132.725 97.6708 131.488C98.3961 130.251 99.4094 129.312 100.711 128.672C102.012 128.011 103.527 127.68 105.255 127.68ZM115.506 144V128H121.298L121.49 131.744C121.852 130.485 122.418 129.493 123.186 128.768C123.975 128.043 124.999 127.68 126.258 127.68C126.706 127.68 127.068 127.723 127.346 127.808C127.623 127.872 127.826 127.957 127.954 128.064L127.378 133.312C127.164 133.227 126.887 133.152 126.546 133.088C126.204 133.024 125.81 132.992 125.362 132.992C124.722 132.992 124.146 133.109 123.634 133.344C123.122 133.579 122.716 133.931 122.418 134.4C122.119 134.848 121.97 135.424 121.97 136.128V144H115.506ZM132.706 126.592C131.426 126.592 130.498 126.368 129.922 125.92C129.368 125.472 129.09 124.747 129.09 123.744C129.09 122.72 129.368 121.984 129.922 121.536C130.498 121.088 131.426 120.864 132.706 120.864C133.986 120.864 134.904 121.088 135.458 121.536C136.034 121.984 136.322 122.72 136.322 123.744C136.322 124.747 136.034 125.472 135.458 125.92C134.904 126.368 133.986 126.592 132.706 126.592ZM135.938 128V144H129.474V128H135.938ZM139.068 150.72V128H144.924L145.244 134.464L144.508 133.696C144.615 132.523 144.913 131.488 145.404 130.592C145.895 129.696 146.545 128.992 147.356 128.48C148.188 127.947 149.148 127.68 150.236 127.68C151.559 127.68 152.689 128.011 153.628 128.672C154.567 129.312 155.281 130.251 155.772 131.488C156.284 132.704 156.54 134.187 156.54 135.936C156.54 137.685 156.284 139.189 155.772 140.448C155.26 141.707 154.524 142.667 153.564 143.328C152.625 143.989 151.505 144.32 150.204 144.32C148.689 144.32 147.495 143.851 146.62 142.912C145.767 141.952 145.212 140.757 144.956 139.328L145.532 138.464V150.72H139.068ZM147.74 139.68C148.465 139.68 149.031 139.413 149.436 138.88C149.841 138.325 150.044 137.365 150.044 136C150.044 134.635 149.841 133.675 149.436 133.12C149.031 132.565 148.476 132.288 147.772 132.288C147.324 132.288 146.929 132.427 146.588 132.704C146.247 132.981 145.98 133.397 145.788 133.952C145.617 134.485 145.532 135.168 145.532 136C145.532 136.789 145.607 137.461 145.756 138.016C145.927 138.571 146.183 138.987 146.524 139.264C146.865 139.541 147.271 139.68 147.74 139.68ZM166.844 122.72V137.856C166.844 138.603 167.004 139.136 167.324 139.456C167.665 139.776 168.167 139.936 168.828 139.936C169.297 139.936 169.703 139.893 170.044 139.808C170.385 139.723 170.705 139.584 171.004 139.392L171.42 143.168C170.908 143.531 170.215 143.808 169.34 144C168.465 144.213 167.612 144.32 166.78 144.32C165.415 144.32 164.252 144.139 163.292 143.776C162.353 143.413 161.628 142.837 161.116 142.048C160.625 141.259 160.38 140.203 160.38 138.88V124.512L166.844 122.72ZM171.196 128V132.448H157.756V128H171.196Z" fill="#818181"/>
<path d="M197.94 17.44L188.42 12.94V11.08L197.94 6.58V8.22L189.7 11.98L197.94 15.76V17.44ZM205.83 18.2C205.27 18.2 204.75 18.1 204.27 17.9C203.79 17.7 203.377 17.42 203.03 17.06C202.684 16.7 202.424 16.2933 202.25 15.84L202.47 15.56L202.33 18H200.93V3.4H202.53V10.26L202.33 9.96C202.597 9.33333 203.044 8.82 203.67 8.42C204.31 8.00667 205.037 7.8 205.85 7.8C206.677 7.8 207.437 8.00667 208.13 8.42C208.824 8.83333 209.377 9.42667 209.79 10.2C210.204 10.9733 210.41 11.9067 210.41 13C210.41 14.08 210.197 15.0133 209.77 15.8C209.357 16.5733 208.804 17.1667 208.11 17.58C207.417 17.9933 206.657 18.2 205.83 18.2ZM205.67 16.8C206.657 16.8 207.424 16.4533 207.97 15.76C208.53 15.0667 208.81 14.1467 208.81 13C208.81 11.8533 208.537 10.9333 207.99 10.24C207.444 9.54667 206.677 9.2 205.69 9.2C205.064 9.2 204.51 9.36 204.03 9.68C203.564 10 203.197 10.4467 202.93 11.02C202.664 11.5933 202.53 12.2667 202.53 13.04C202.53 13.8 202.657 14.4667 202.91 15.04C203.177 15.6 203.544 16.0333 204.01 16.34C204.49 16.6467 205.044 16.8 205.67 16.8ZM217.649 18.2C216.703 18.2 215.856 17.9933 215.109 17.58C214.376 17.1667 213.803 16.5733 213.389 15.8C212.976 15.0133 212.769 14.08 212.769 13C212.769 11.92 212.976 10.9933 213.389 10.22C213.803 9.43333 214.369 8.83333 215.089 8.42C215.809 8.00667 216.629 7.8 217.549 7.8C218.483 7.8 219.276 8 219.929 8.4C220.596 8.8 221.103 9.34667 221.449 10.04C221.796 10.72 221.969 11.4867 221.969 12.34C221.969 12.5667 221.963 12.7733 221.949 12.96C221.936 13.1467 221.916 13.3133 221.889 13.46H213.809V12.04H221.189L220.369 12.2C220.369 11.24 220.103 10.5 219.569 9.98C219.049 9.46 218.363 9.2 217.509 9.2C216.856 9.2 216.289 9.35333 215.809 9.66C215.343 9.95333 214.976 10.3867 214.709 10.96C214.456 11.52 214.329 12.2 214.329 13C214.329 13.7867 214.463 14.4667 214.729 15.04C214.996 15.6133 215.369 16.0533 215.849 16.36C216.343 16.6533 216.929 16.8 217.609 16.8C218.343 16.8 218.936 16.66 219.389 16.38C219.856 16.1 220.229 15.72 220.509 15.24L221.769 15.98C221.516 16.4333 221.189 16.8267 220.789 17.16C220.403 17.4933 219.943 17.7533 219.409 17.94C218.889 18.1133 218.303 18.2 217.649 18.2ZM233.432 6.16L233.792 7.58C233.779 7.58 233.759 7.58 233.732 7.58C233.706 7.58 233.679 7.58 233.652 7.58C232.999 7.58 232.492 7.71333 232.132 7.98C231.786 8.23333 231.612 8.64667 231.612 9.22L230.632 8.72C230.632 8.2 230.752 7.74667 230.992 7.36C231.232 6.97333 231.559 6.68 231.972 6.48C232.386 6.26667 232.839 6.16 233.332 6.16C233.346 6.16 233.359 6.16 233.372 6.16C233.399 6.16 233.419 6.16 233.432 6.16ZM230.392 16.72C231.339 16.72 232.079 16.94 232.612 17.38C233.146 17.8067 233.412 18.38 233.412 19.1C233.412 19.7533 233.192 20.32 232.752 20.8C232.326 21.28 231.746 21.6467 231.012 21.9C230.292 22.1667 229.479 22.3 228.572 22.3C226.999 22.3 225.819 22.0333 225.032 21.5C224.259 20.9667 223.872 20.3267 223.872 19.58C223.872 19.0467 224.046 18.5667 224.392 18.14C224.752 17.7267 225.352 17.4933 226.192 17.44L226.052 17.74C225.599 17.62 225.212 17.42 224.892 17.14C224.586 16.8467 224.432 16.4267 224.432 15.88C224.432 15.3333 224.632 14.8667 225.032 14.48C225.446 14.08 226.052 13.8333 226.852 13.74L227.912 14.28H227.712C227.059 14.3467 226.592 14.5133 226.312 14.78C226.046 15.0333 225.912 15.3133 225.912 15.62C225.912 15.9933 226.046 16.2733 226.312 16.46C226.592 16.6333 226.979 16.72 227.472 16.72H230.392ZM228.552 20.96C229.326 20.96 229.959 20.88 230.452 20.72C230.959 20.56 231.332 20.3533 231.572 20.1C231.812 19.8467 231.932 19.5733 231.932 19.28C231.932 18.92 231.786 18.6333 231.492 18.42C231.212 18.2067 230.699 18.1 229.952 18.1H226.872C226.446 18.1 226.086 18.2067 225.792 18.42C225.499 18.6467 225.352 18.9533 225.352 19.34C225.352 19.8333 225.632 20.2267 226.192 20.52C226.766 20.8133 227.552 20.96 228.552 20.96ZM228.412 7.8C229.212 7.8 229.919 7.94667 230.532 8.24C231.159 8.52 231.646 8.91333 231.992 9.42C232.339 9.92667 232.512 10.5133 232.512 11.18C232.512 11.8333 232.339 12.42 231.992 12.94C231.646 13.4467 231.159 13.8467 230.532 14.14C229.919 14.42 229.212 14.56 228.412 14.56C227.092 14.56 226.079 14.2467 225.372 13.62C224.666 12.98 224.312 12.1667 224.312 11.18C224.312 10.5133 224.486 9.92667 224.832 9.42C225.192 8.91333 225.679 8.52 226.292 8.24C226.906 7.94667 227.612 7.8 228.412 7.8ZM228.412 9.1C227.719 9.1 227.139 9.29333 226.672 9.68C226.206 10.0533 225.972 10.5533 225.972 11.18C225.972 11.7933 226.206 12.2933 226.672 12.68C227.139 13.0667 227.719 13.26 228.412 13.26C229.106 13.26 229.686 13.0667 230.152 12.68C230.619 12.2933 230.852 11.7933 230.852 11.18C230.852 10.5533 230.619 10.0533 230.152 9.68C229.686 9.29333 229.106 9.1 228.412 9.1ZM243.877 8L239.177 19.68C238.924 20.3333 238.644 20.8467 238.337 21.22C238.044 21.6067 237.71 21.88 237.337 22.04C236.977 22.2133 236.557 22.3 236.077 22.3C235.624 22.3 235.204 22.2333 234.817 22.1C234.444 21.98 234.11 21.8133 233.817 21.6L234.257 20.2C234.524 20.44 234.804 20.6133 235.097 20.72C235.404 20.84 235.704 20.9 235.997 20.9C236.344 20.9 236.67 20.7933 236.977 20.58C237.284 20.3667 237.564 19.9333 237.817 19.28L238.337 17.98L237.337 15.6L234.157 8H235.977L238.477 14.52L239.097 16.3L239.817 14.32L242.157 8H243.877ZM245.969 18V8H247.369L247.509 10.24L247.249 10.02C247.463 9.48667 247.749 9.06 248.109 8.74C248.469 8.40667 248.883 8.16667 249.349 8.02C249.829 7.87333 250.323 7.8 250.829 7.8C251.549 7.8 252.203 7.94 252.789 8.22C253.376 8.48667 253.843 8.9 254.189 9.46C254.549 10.02 254.729 10.7333 254.729 11.6V18H253.129V12.16C253.129 11.0533 252.889 10.2867 252.409 9.86C251.943 9.42 251.363 9.2 250.669 9.2C250.189 9.2 249.709 9.31333 249.229 9.54C248.749 9.76667 248.349 10.1333 248.029 10.64C247.723 11.1467 247.569 11.8267 247.569 12.68V18H245.969ZM262.252 18.2C261.426 18.2 260.666 17.9933 259.972 17.58C259.279 17.1667 258.726 16.5733 258.312 15.8C257.899 15.0133 257.692 14.08 257.692 13C257.692 11.8933 257.912 10.9533 258.352 10.18C258.792 9.40667 259.372 8.82 260.092 8.42C260.812 8.00667 261.586 7.8 262.412 7.8C263.239 7.8 263.952 8.01333 264.552 8.44C265.166 8.86667 265.572 9.43333 265.772 10.14L265.572 10.28V3.4H267.172V18H265.772L265.632 15.58L265.852 15.46C265.759 16.0467 265.532 16.5467 265.172 16.96C264.826 17.36 264.392 17.6667 263.872 17.88C263.366 18.0933 262.826 18.2 262.252 18.2ZM262.412 16.8C263.052 16.8 263.606 16.64 264.072 16.32C264.552 16 264.919 15.5467 265.172 14.96C265.439 14.36 265.572 13.66 265.572 12.86C265.572 12.1 265.439 11.4467 265.172 10.9C264.919 10.3533 264.559 9.93333 264.092 9.64C263.639 9.34667 263.106 9.2 262.492 9.2C261.479 9.2 260.692 9.54667 260.132 10.24C259.572 10.9333 259.292 11.8533 259.292 13C259.292 14.1467 259.566 15.0667 260.112 15.76C260.659 16.4533 261.426 16.8 262.412 16.8ZM275.071 18.2C274.125 18.2 273.278 17.9933 272.531 17.58C271.798 17.1667 271.225 16.5733 270.811 15.8C270.398 15.0133 270.191 14.08 270.191 13C270.191 11.92 270.398 10.9933 270.811 10.22C271.225 9.43333 271.791 8.83333 272.511 8.42C273.231 8.00667 274.051 7.8 274.971 7.8C275.905 7.8 276.698 8 277.351 8.4C278.018 8.8 278.525 9.34667 278.871 10.04C279.218 10.72 279.391 11.4867 279.391 12.34C279.391 12.5667 279.385 12.7733 279.371 12.96C279.358 13.1467 279.338 13.3133 279.311 13.46H271.231V12.04H278.611L277.791 12.2C277.791 11.24 277.525 10.5 276.991 9.98C276.471 9.46 275.785 9.2 274.931 9.2C274.278 9.2 273.711 9.35333 273.231 9.66C272.765 9.95333 272.398 10.3867 272.131 10.96C271.878 11.52 271.751 12.2 271.751 13C271.751 13.7867 271.885 14.4667 272.151 15.04C272.418 15.6133 272.791 16.0533 273.271 16.36C273.765 16.6533 274.351 16.8 275.031 16.8C275.765 16.8 276.358 16.66 276.811 16.38C277.278 16.1 277.651 15.72 277.931 15.24L279.191 15.98C278.938 16.4333 278.611 16.8267 278.211 17.16C277.825 17.4933 277.365 17.7533 276.831 17.94C276.311 18.1133 275.725 18.2 275.071 18.2ZM282.434 18V8H283.734L283.954 9.64C284.234 9.02667 284.641 8.56667 285.174 8.26C285.721 7.95333 286.381 7.8 287.154 7.8C287.328 7.8 287.514 7.81333 287.714 7.84C287.928 7.86667 288.108 7.92 288.254 8L287.974 9.46C287.828 9.40667 287.668 9.36667 287.494 9.34C287.321 9.31333 287.074 9.3 286.754 9.3C286.341 9.3 285.921 9.42 285.494 9.66C285.081 9.9 284.734 10.2667 284.454 10.76C284.174 11.24 284.034 11.8533 284.034 12.6V18H282.434ZM296.039 3.4L289.919 19.4H288.419L294.539 3.4H296.039ZM297.73 6.58L307.25 11.08V12.94L297.73 17.44V15.8L305.97 12.04L297.73 8.26V6.58Z" fill="black"/>
<path d="M334.94 17.44L325.42 12.94V11.08L334.94 6.58V8.22L326.7 11.98L334.94 15.76V17.44ZM343.77 11.54C343.77 10.7933 343.57 10.22 343.17 9.82C342.77 9.40667 342.204 9.2 341.47 9.2C340.777 9.2 340.19 9.35333 339.71 9.66C339.23 9.95333 338.877 10.4333 338.65 11.1L337.35 10.3C337.617 9.55333 338.11 8.95333 338.83 8.5C339.55 8.03333 340.444 7.8 341.51 7.8C342.23 7.8 342.884 7.92667 343.47 8.18C344.057 8.42 344.517 8.79333 344.85 9.3C345.197 9.79333 345.37 10.4333 345.37 11.22V16.06C345.37 16.54 345.624 16.78 346.13 16.78C346.384 16.78 346.63 16.7467 346.87 16.68L346.79 17.94C346.524 18.0733 346.177 18.14 345.75 18.14C345.364 18.14 345.017 18.0667 344.71 17.92C344.404 17.7733 344.164 17.5533 343.99 17.26C343.817 16.9533 343.73 16.5733 343.73 16.12V15.92L344.13 15.98C343.97 16.5 343.697 16.9267 343.31 17.26C342.924 17.58 342.49 17.82 342.01 17.98C341.53 18.1267 341.057 18.2 340.59 18.2C340.004 18.2 339.457 18.1 338.95 17.9C338.444 17.7 338.037 17.4 337.73 17C337.437 16.5867 337.29 16.08 337.29 15.48C337.29 14.7333 337.537 14.12 338.03 13.64C338.537 13.1467 339.237 12.8133 340.13 12.64L344.09 11.86V13.18L340.87 13.84C340.217 13.9733 339.73 14.16 339.41 14.4C339.09 14.64 338.93 14.9733 338.93 15.4C338.93 15.8133 339.09 16.1533 339.41 16.42C339.744 16.6733 340.21 16.8 340.81 16.8C341.197 16.8 341.564 16.7533 341.91 16.66C342.27 16.5533 342.59 16.4 342.87 16.2C343.15 15.9867 343.37 15.7267 343.53 15.42C343.69 15.1 343.77 14.7267 343.77 14.3V11.54ZM349.258 18V8H350.658L350.758 9.56C351.118 8.94667 351.585 8.5 352.158 8.22C352.745 7.94 353.345 7.8 353.958 7.8C354.665 7.8 355.332 7.96 355.958 8.28C356.585 8.6 357.065 9.09333 357.398 9.76C357.612 9.30667 357.912 8.94 358.298 8.66C358.685 8.36667 359.105 8.15333 359.558 8.02C360.025 7.87333 360.465 7.8 360.878 7.8C361.518 7.8 362.125 7.93333 362.698 8.2C363.285 8.46667 363.765 8.88 364.138 9.44C364.512 10 364.698 10.72 364.698 11.6V18H363.098V11.76C363.098 10.8533 362.872 10.2 362.418 9.8C361.965 9.4 361.405 9.2 360.738 9.2C360.218 9.2 359.732 9.32667 359.278 9.58C358.825 9.83333 358.458 10.2067 358.178 10.7C357.912 11.1933 357.778 11.8 357.778 12.52V18H356.178V11.76C356.178 10.8533 355.952 10.2 355.498 9.8C355.045 9.4 354.485 9.2 353.818 9.2C353.378 9.2 352.925 9.32 352.458 9.56C352.005 9.78667 351.625 10.1533 351.318 10.66C351.012 11.1667 350.858 11.8333 350.858 12.66V18H349.258ZM374.161 11.54C374.161 10.7933 373.961 10.22 373.561 9.82C373.161 9.40667 372.594 9.2 371.861 9.2C371.168 9.2 370.581 9.35333 370.101 9.66C369.621 9.95333 369.268 10.4333 369.041 11.1L367.741 10.3C368.008 9.55333 368.501 8.95333 369.221 8.5C369.941 8.03333 370.834 7.8 371.901 7.8C372.621 7.8 373.274 7.92667 373.861 8.18C374.448 8.42 374.908 8.79333 375.241 9.3C375.588 9.79333 375.761 10.4333 375.761 11.22V16.06C375.761 16.54 376.014 16.78 376.521 16.78C376.774 16.78 377.021 16.7467 377.261 16.68L377.181 17.94C376.914 18.0733 376.568 18.14 376.141 18.14C375.754 18.14 375.408 18.0667 375.101 17.92C374.794 17.7733 374.554 17.5533 374.381 17.26C374.208 16.9533 374.121 16.5733 374.121 16.12V15.92L374.521 15.98C374.361 16.5 374.088 16.9267 373.701 17.26C373.314 17.58 372.881 17.82 372.401 17.98C371.921 18.1267 371.448 18.2 370.981 18.2C370.394 18.2 369.848 18.1 369.341 17.9C368.834 17.7 368.428 17.4 368.121 17C367.828 16.5867 367.681 16.08 367.681 15.48C367.681 14.7333 367.928 14.12 368.421 13.64C368.928 13.1467 369.628 12.8133 370.521 12.64L374.481 11.86V13.18L371.261 13.84C370.608 13.9733 370.121 14.16 369.801 14.4C369.481 14.64 369.321 14.9733 369.321 15.4C369.321 15.8133 369.481 16.1533 369.801 16.42C370.134 16.6733 370.601 16.8 371.201 16.8C371.588 16.8 371.954 16.7533 372.301 16.66C372.661 16.5533 372.981 16.4 373.261 16.2C373.541 15.9867 373.761 15.7267 373.921 15.42C374.081 15.1 374.161 14.7267 374.161 14.3V11.54ZM381.618 5.16V15.24C381.618 15.7333 381.758 16.1 382.038 16.34C382.318 16.58 382.678 16.7 383.118 16.7C383.505 16.7 383.838 16.6333 384.118 16.5C384.398 16.3667 384.652 16.1867 384.878 15.96L385.438 17.3C385.132 17.58 384.765 17.8 384.338 17.96C383.925 18.12 383.445 18.2 382.898 18.2C382.392 18.2 381.918 18.1133 381.478 17.94C381.038 17.7533 380.685 17.4667 380.418 17.08C380.165 16.68 380.032 16.16 380.018 15.52V5.6L381.618 5.16ZM385.258 8V9.38H378.018V8H385.258ZM391.777 7.8C392.724 7.8 393.557 8.00667 394.277 8.42C395.011 8.83333 395.584 9.43333 395.997 10.22C396.411 10.9933 396.617 11.92 396.617 13C396.617 14.08 396.411 15.0133 395.997 15.8C395.584 16.5733 395.011 17.1667 394.277 17.58C393.557 17.9933 392.724 18.2 391.777 18.2C390.844 18.2 390.011 17.9933 389.277 17.58C388.544 17.1667 387.971 16.5733 387.557 15.8C387.144 15.0133 386.937 14.08 386.937 13C386.937 11.92 387.144 10.9933 387.557 10.22C387.971 9.43333 388.544 8.83333 389.277 8.42C390.011 8.00667 390.844 7.8 391.777 7.8ZM391.777 9.18C391.097 9.18 390.517 9.33333 390.037 9.64C389.557 9.94667 389.184 10.3867 388.917 10.96C388.664 11.52 388.537 12.2 388.537 13C388.537 13.7867 388.664 14.4667 388.917 15.04C389.184 15.6133 389.557 16.0533 390.037 16.36C390.517 16.6667 391.097 16.82 391.777 16.82C392.457 16.82 393.037 16.6667 393.517 16.36C393.997 16.0533 394.364 15.6133 394.617 15.04C394.884 14.4667 395.017 13.7867 395.017 13C395.017 12.2 394.884 11.52 394.617 10.96C394.364 10.3867 393.997 9.94667 393.517 9.64C393.037 9.33333 392.457 9.18 391.777 9.18ZM386.877 18.6L395.337 7.4H396.677L388.217 18.6H386.877ZM399.63 18V8H400.93L401.15 9.64C401.43 9.02667 401.836 8.56667 402.37 8.26C402.916 7.95333 403.576 7.8 404.35 7.8C404.523 7.8 404.71 7.81333 404.91 7.84C405.123 7.86667 405.303 7.92 405.45 8L405.17 9.46C405.023 9.40667 404.863 9.36667 404.69 9.34C404.516 9.31333 404.27 9.3 403.95 9.3C403.536 9.3 403.116 9.42 402.69 9.66C402.276 9.9 401.93 10.2667 401.65 10.76C401.37 11.24 401.23 11.8533 401.23 12.6V18H399.63ZM413.235 3.4L407.115 19.4H405.615L411.735 3.4H413.235ZM414.925 6.58L424.445 11.08V12.94L414.925 17.44V15.8L423.165 12.04L414.925 8.26V6.58Z" fill="black"/>
<path d="M451.94 17.44L442.42 12.94V11.08L451.94 6.58V8.22L443.7 11.98L451.94 15.76V17.44ZM454.93 18V8H456.33L456.43 9.56C456.79 8.94667 457.257 8.5 457.83 8.22C458.417 7.94 459.017 7.8 459.63 7.8C460.337 7.8 461.004 7.96 461.63 8.28C462.257 8.6 462.737 9.09333 463.07 9.76C463.284 9.30667 463.584 8.94 463.97 8.66C464.357 8.36667 464.777 8.15333 465.23 8.02C465.697 7.87333 466.137 7.8 466.55 7.8C467.19 7.8 467.797 7.93333 468.37 8.2C468.957 8.46667 469.437 8.88 469.81 9.44C470.184 10 470.37 10.72 470.37 11.6V18H468.77V11.76C468.77 10.8533 468.544 10.2 468.09 9.8C467.637 9.4 467.077 9.2 466.41 9.2C465.89 9.2 465.404 9.32667 464.95 9.58C464.497 9.83333 464.13 10.2067 463.85 10.7C463.584 11.1933 463.45 11.8 463.45 12.52V18H461.85V11.76C461.85 10.8533 461.624 10.2 461.17 9.8C460.717 9.4 460.157 9.2 459.49 9.2C459.05 9.2 458.597 9.32 458.13 9.56C457.677 9.78667 457.297 10.1533 456.99 10.66C456.684 11.1667 456.53 11.8333 456.53 12.66V18H454.93ZM474.793 6.08C474.433 6.08 474.139 5.97333 473.913 5.76C473.699 5.53333 473.593 5.24 473.593 4.88C473.593 4.52 473.699 4.23333 473.913 4.02C474.139 3.79333 474.433 3.68 474.793 3.68C475.153 3.68 475.439 3.79333 475.653 4.02C475.879 4.23333 475.993 4.52 475.993 4.88C475.993 5.24 475.879 5.53333 475.653 5.76C475.439 5.97333 475.153 6.08 474.793 6.08ZM475.593 8V18H473.993V8H475.593ZM483.205 18.2C482.379 18.2 481.619 17.9933 480.925 17.58C480.232 17.1667 479.679 16.5733 479.265 15.8C478.852 15.0133 478.645 14.08 478.645 13C478.645 11.8933 478.865 10.9533 479.305 10.18C479.745 9.40667 480.325 8.82 481.045 8.42C481.765 8.00667 482.539 7.8 483.365 7.8C484.192 7.8 484.905 8.01333 485.505 8.44C486.119 8.86667 486.525 9.43333 486.725 10.14L486.525 10.28V3.4H488.125V18H486.725L486.585 15.58L486.805 15.46C486.712 16.0467 486.485 16.5467 486.125 16.96C485.779 17.36 485.345 17.6667 484.825 17.88C484.319 18.0933 483.779 18.2 483.205 18.2ZM483.365 16.8C484.005 16.8 484.559 16.64 485.025 16.32C485.505 16 485.872 15.5467 486.125 14.96C486.392 14.36 486.525 13.66 486.525 12.86C486.525 12.1 486.392 11.4467 486.125 10.9C485.872 10.3533 485.512 9.93333 485.045 9.64C484.592 9.34667 484.059 9.2 483.445 9.2C482.432 9.2 481.645 9.54667 481.085 10.24C480.525 10.9333 480.245 11.8533 480.245 13C480.245 14.1467 480.519 15.0667 481.065 15.76C481.612 16.4533 482.379 16.8 483.365 16.8ZM495.744 18.2C494.918 18.2 494.158 17.9933 493.464 17.58C492.771 17.1667 492.218 16.5733 491.804 15.8C491.391 15.0133 491.184 14.08 491.184 13C491.184 11.8933 491.404 10.9533 491.844 10.18C492.284 9.40667 492.864 8.82 493.584 8.42C494.304 8.00667 495.078 7.8 495.904 7.8C496.731 7.8 497.444 8.01333 498.044 8.44C498.658 8.86667 499.064 9.43333 499.264 10.14L499.064 10.28V3.4H500.664V18H499.264L499.124 15.58L499.344 15.46C499.251 16.0467 499.024 16.5467 498.664 16.96C498.318 17.36 497.884 17.6667 497.364 17.88C496.858 18.0933 496.318 18.2 495.744 18.2ZM495.904 16.8C496.544 16.8 497.098 16.64 497.564 16.32C498.044 16 498.411 15.5467 498.664 14.96C498.931 14.36 499.064 13.66 499.064 12.86C499.064 12.1 498.931 11.4467 498.664 10.9C498.411 10.3533 498.051 9.93333 497.584 9.64C497.131 9.34667 496.598 9.2 495.984 9.2C494.971 9.2 494.184 9.54667 493.624 10.24C493.064 10.9333 492.784 11.8533 492.784 13C492.784 14.1467 493.058 15.0667 493.604 15.76C494.151 16.4533 494.918 16.8 495.904 16.8ZM508.563 18.2C507.617 18.2 506.77 17.9933 506.023 17.58C505.29 17.1667 504.717 16.5733 504.303 15.8C503.89 15.0133 503.683 14.08 503.683 13C503.683 11.92 503.89 10.9933 504.303 10.22C504.717 9.43333 505.283 8.83333 506.003 8.42C506.723 8.00667 507.543 7.8 508.463 7.8C509.397 7.8 510.19 8 510.843 8.4C511.51 8.8 512.017 9.34667 512.363 10.04C512.71 10.72 512.883 11.4867 512.883 12.34C512.883 12.5667 512.877 12.7733 512.863 12.96C512.85 13.1467 512.83 13.3133 512.803 13.46H504.723V12.04H512.103L511.283 12.2C511.283 11.24 511.017 10.5 510.483 9.98C509.963 9.46 509.277 9.2 508.423 9.2C507.77 9.2 507.203 9.35333 506.723 9.66C506.257 9.95333 505.89 10.3867 505.623 10.96C505.37 11.52 505.243 12.2 505.243 13C505.243 13.7867 505.377 14.4667 505.643 15.04C505.91 15.6133 506.283 16.0533 506.763 16.36C507.257 16.6533 507.843 16.8 508.523 16.8C509.257 16.8 509.85 16.66 510.303 16.38C510.77 16.1 511.143 15.72 511.423 15.24L512.683 15.98C512.43 16.4333 512.103 16.8267 511.703 17.16C511.317 17.4933 510.857 17.7533 510.323 17.94C509.803 18.1133 509.217 18.2 508.563 18.2ZM517.446 3.4V15.46C517.446 15.9667 517.54 16.32 517.726 16.52C517.913 16.7067 518.213 16.8 518.626 16.8C518.893 16.8 519.113 16.78 519.286 16.74C519.46 16.7 519.693 16.6267 519.986 16.52L519.726 17.92C519.513 18.0133 519.28 18.08 519.026 18.12C518.773 18.1733 518.513 18.2 518.246 18.2C517.433 18.2 516.826 17.98 516.426 17.54C516.04 17.1 515.846 16.4267 515.846 15.52V3.4H517.446ZM528.36 3.4L522.24 19.4H520.74L526.86 3.4H528.36ZM530.05 6.58L539.57 11.08V12.94L530.05 17.44V15.8L538.29 12.04L530.05 8.26V6.58Z" fill="black"/>
<path d="M566.94 17.44L557.42 12.94V11.08L566.94 6.58V8.22L558.7 11.98L566.94 15.76V17.44ZM574.07 7.8C575.017 7.8 575.85 8.00667 576.57 8.42C577.304 8.83333 577.877 9.43333 578.29 10.22C578.704 10.9933 578.91 11.92 578.91 13C578.91 14.08 578.704 15.0133 578.29 15.8C577.877 16.5733 577.304 17.1667 576.57 17.58C575.85 17.9933 575.017 18.2 574.07 18.2C573.137 18.2 572.304 17.9933 571.57 17.58C570.837 17.1667 570.264 16.5733 569.85 15.8C569.437 15.0133 569.23 14.08 569.23 13C569.23 11.92 569.437 10.9933 569.85 10.22C570.264 9.43333 570.837 8.83333 571.57 8.42C572.304 8.00667 573.137 7.8 574.07 7.8ZM574.07 9.18C573.39 9.18 572.81 9.33333 572.33 9.64C571.85 9.94667 571.477 10.3867 571.21 10.96C570.957 11.52 570.83 12.2 570.83 13C570.83 13.7867 570.957 14.4667 571.21 15.04C571.477 15.6133 571.85 16.0533 572.33 16.36C572.81 16.6667 573.39 16.82 574.07 16.82C574.75 16.82 575.33 16.6667 575.81 16.36C576.29 16.0533 576.657 15.6133 576.91 15.04C577.177 14.4667 577.31 13.7867 577.31 13C577.31 12.2 577.177 11.52 576.91 10.96C576.657 10.3867 576.29 9.94667 575.81 9.64C575.33 9.33333 574.75 9.18 574.07 9.18ZM569.17 18.6L577.63 7.4H578.97L570.51 18.6H569.17ZM588.543 8H590.223L586.063 18H584.463L580.303 8H582.123L585.283 16.38L588.543 8ZM596.493 18.2C595.546 18.2 594.7 17.9933 593.953 17.58C593.22 17.1667 592.646 16.5733 592.233 15.8C591.82 15.0133 591.613 14.08 591.613 13C591.613 11.92 591.82 10.9933 592.233 10.22C592.646 9.43333 593.213 8.83333 593.933 8.42C594.653 8.00667 595.473 7.8 596.393 7.8C597.326 7.8 598.12 8 598.773 8.4C599.44 8.8 599.946 9.34667 600.293 10.04C600.64 10.72 600.813 11.4867 600.813 12.34C600.813 12.5667 600.806 12.7733 600.793 12.96C600.78 13.1467 600.76 13.3133 600.733 13.46H592.653V12.04H600.033L599.213 12.2C599.213 11.24 598.946 10.5 598.413 9.98C597.893 9.46 597.206 9.2 596.353 9.2C595.7 9.2 595.133 9.35333 594.653 9.66C594.186 9.95333 593.82 10.3867 593.553 10.96C593.3 11.52 593.173 12.2 593.173 13C593.173 13.7867 593.306 14.4667 593.573 15.04C593.84 15.6133 594.213 16.0533 594.693 16.36C595.186 16.6533 595.773 16.8 596.453 16.8C597.186 16.8 597.78 16.66 598.233 16.38C598.7 16.1 599.073 15.72 599.353 15.24L600.613 15.98C600.36 16.4333 600.033 16.8267 599.633 17.16C599.246 17.4933 598.786 17.7533 598.253 17.94C597.733 18.1133 597.146 18.2 596.493 18.2ZM605.923 5.16V15.24C605.923 15.7333 606.063 16.1 606.343 16.34C606.623 16.58 606.983 16.7 607.423 16.7C607.81 16.7 608.143 16.6333 608.423 16.5C608.703 16.3667 608.956 16.1867 609.183 15.96L609.743 17.3C609.436 17.58 609.07 17.8 608.643 17.96C608.23 18.12 607.75 18.2 607.203 18.2C606.696 18.2 606.223 18.1133 605.783 17.94C605.343 17.7533 604.99 17.4667 604.723 17.08C604.47 16.68 604.336 16.16 604.323 15.52V5.6L605.923 5.16ZM609.563 8V9.38H602.323V8H609.563ZM618.262 3.4L612.142 19.4H610.642L616.762 3.4H618.262ZM619.953 6.58L629.473 11.08V12.94L619.953 17.44V15.8L628.193 12.04L619.953 8.26V6.58Z" fill="black"/>
<path d="M656.94 17.44L647.42 12.94V11.08L656.94 6.58V8.22L648.7 11.98L656.94 15.76V17.44ZM659.93 22.2V8H661.33L661.47 10.44L661.25 10.16C661.424 9.69333 661.684 9.28667 662.03 8.94C662.377 8.58 662.797 8.3 663.29 8.1C663.784 7.9 664.317 7.8 664.89 7.8C665.704 7.8 666.45 8.00667 667.13 8.42C667.824 8.83333 668.377 9.42667 668.79 10.2C669.204 10.9733 669.41 11.9067 669.41 13C669.41 14.08 669.197 15.0133 668.77 15.8C668.357 16.5733 667.804 17.1667 667.11 17.58C666.417 17.9933 665.657 18.2 664.83 18.2C664.004 18.2 663.277 18 662.65 17.6C662.037 17.1867 661.597 16.6667 661.33 16.04L661.53 15.74V22.2H659.93ZM664.67 16.8C665.657 16.8 666.424 16.4533 666.97 15.76C667.53 15.0667 667.81 14.1467 667.81 13C667.81 11.8533 667.537 10.9333 666.99 10.24C666.457 9.54667 665.704 9.2 664.73 9.2C664.09 9.2 663.53 9.36 663.05 9.68C662.57 9.98667 662.197 10.4267 661.93 11C661.664 11.56 661.53 12.2267 661.53 13C661.53 13.76 661.657 14.4267 661.91 15C662.177 15.5733 662.544 16.02 663.01 16.34C663.49 16.6467 664.044 16.8 664.67 16.8ZM672.469 18V8H673.769L673.989 9.64C674.269 9.02667 674.676 8.56667 675.209 8.26C675.756 7.95333 676.416 7.8 677.189 7.8C677.363 7.8 677.549 7.81333 677.749 7.84C677.963 7.86667 678.143 7.92 678.289 8L678.009 9.46C677.863 9.40667 677.703 9.36667 677.529 9.34C677.356 9.31333 677.109 9.3 676.789 9.3C676.376 9.3 675.956 9.42 675.529 9.66C675.116 9.9 674.769 10.2667 674.489 10.76C674.209 11.24 674.069 11.8533 674.069 12.6V18H672.469ZM684.461 7.8C685.408 7.8 686.241 8.00667 686.961 8.42C687.694 8.83333 688.268 9.43333 688.681 10.22C689.094 10.9933 689.301 11.92 689.301 13C689.301 14.08 689.094 15.0133 688.681 15.8C688.268 16.5733 687.694 17.1667 686.961 17.58C686.241 17.9933 685.408 18.2 684.461 18.2C683.528 18.2 682.694 17.9933 681.961 17.58C681.228 17.1667 680.654 16.5733 680.241 15.8C679.828 15.0133 679.621 14.08 679.621 13C679.621 11.92 679.828 10.9933 680.241 10.22C680.654 9.43333 681.228 8.83333 681.961 8.42C682.694 8.00667 683.528 7.8 684.461 7.8ZM684.461 9.18C683.781 9.18 683.201 9.33333 682.721 9.64C682.241 9.94667 681.868 10.3867 681.601 10.96C681.348 11.52 681.221 12.2 681.221 13C681.221 13.7867 681.348 14.4667 681.601 15.04C681.868 15.6133 682.241 16.0533 682.721 16.36C683.201 16.6667 683.781 16.82 684.461 16.82C685.141 16.82 685.721 16.6667 686.201 16.36C686.681 16.0533 687.048 15.6133 687.301 15.04C687.568 14.4667 687.701 13.7867 687.701 13C687.701 12.2 687.568 11.52 687.301 10.96C687.048 10.3867 686.681 9.94667 686.201 9.64C685.721 9.33333 685.141 9.18 684.461 9.18ZM696.197 3.3C696.544 3.3 696.871 3.34 697.177 3.42C697.484 3.5 697.724 3.61333 697.897 3.76L697.477 5.06C697.317 4.95333 697.144 4.88 696.957 4.84C696.771 4.78667 696.564 4.76 696.337 4.76C695.764 4.76 695.317 4.9 694.997 5.18C694.677 5.44667 694.517 5.88 694.517 6.48V8V8.52V18H692.917V6.32C692.917 5.88 692.984 5.47333 693.117 5.1C693.251 4.72667 693.451 4.40667 693.717 4.14C693.997 3.87333 694.344 3.66667 694.757 3.52C695.171 3.37333 695.651 3.3 696.197 3.3ZM697.857 8V9.38H690.917V8H697.857ZM703.895 18.2C702.949 18.2 702.102 17.9933 701.355 17.58C700.622 17.1667 700.049 16.5733 699.635 15.8C699.222 15.0133 699.015 14.08 699.015 13C699.015 11.92 699.222 10.9933 699.635 10.22C700.049 9.43333 700.615 8.83333 701.335 8.42C702.055 8.00667 702.875 7.8 703.795 7.8C704.729 7.8 705.522 8 706.175 8.4C706.842 8.8 707.349 9.34667 707.695 10.04C708.042 10.72 708.215 11.4867 708.215 12.34C708.215 12.5667 708.209 12.7733 708.195 12.96C708.182 13.1467 708.162 13.3133 708.135 13.46H700.055V12.04H707.435L706.615 12.2C706.615 11.24 706.349 10.5 705.815 9.98C705.295 9.46 704.609 9.2 703.755 9.2C703.102 9.2 702.535 9.35333 702.055 9.66C701.589 9.95333 701.222 10.3867 700.955 10.96C700.702 11.52 700.575 12.2 700.575 13C700.575 13.7867 700.709 14.4667 700.975 15.04C701.242 15.6133 701.615 16.0533 702.095 16.36C702.589 16.6533 703.175 16.8 703.855 16.8C704.589 16.8 705.182 16.66 705.635 16.38C706.102 16.1 706.475 15.72 706.755 15.24L708.015 15.98C707.762 16.4333 707.435 16.8267 707.035 17.16C706.649 17.4933 706.189 17.7533 705.655 17.94C705.135 18.1133 704.549 18.2 703.895 18.2ZM714.858 18.2C713.885 18.2 712.985 17.9933 712.158 17.58C711.345 17.1667 710.718 16.58 710.278 15.82L711.638 14.84C711.932 15.4533 712.358 15.9333 712.918 16.28C713.492 16.6267 714.178 16.8 714.978 16.8C715.685 16.8 716.238 16.6667 716.638 16.4C717.038 16.12 717.238 15.76 717.238 15.32C717.238 15.04 717.145 14.7867 716.958 14.56C716.785 14.32 716.445 14.1467 715.938 14.04L713.538 13.54C712.565 13.34 711.865 13.0067 711.438 12.54C711.025 12.0733 710.818 11.4933 710.818 10.8C710.818 10.2533 710.972 9.75333 711.278 9.3C711.598 8.84667 712.045 8.48667 712.618 8.22C713.205 7.94 713.892 7.8 714.678 7.8C715.665 7.8 716.498 7.99333 717.178 8.38C717.858 8.76667 718.365 9.31333 718.698 10.02L717.358 10.9C717.132 10.3133 716.765 9.88667 716.258 9.62C715.752 9.34 715.225 9.2 714.678 9.2C714.198 9.2 713.785 9.26667 713.438 9.4C713.105 9.53333 712.845 9.72 712.658 9.96C712.485 10.1867 712.398 10.4467 712.398 10.74C712.398 11.0333 712.498 11.3067 712.698 11.56C712.898 11.8 713.272 11.9733 713.818 12.08L716.318 12.6C717.252 12.7867 717.905 13.0933 718.278 13.52C718.652 13.9467 718.838 14.4667 718.838 15.08C718.838 15.7067 718.672 16.26 718.338 16.74C718.005 17.2067 717.538 17.5667 716.938 17.82C716.338 18.0733 715.645 18.2 714.858 18.2ZM725.405 18.2C724.432 18.2 723.532 17.9933 722.705 17.58C721.892 17.1667 721.265 16.58 720.825 15.82L722.185 14.84C722.479 15.4533 722.905 15.9333 723.465 16.28C724.039 16.6267 724.725 16.8 725.525 16.8C726.232 16.8 726.785 16.6667 727.185 16.4C727.585 16.12 727.785 15.76 727.785 15.32C727.785 15.04 727.692 14.7867 727.505 14.56C727.332 14.32 726.992 14.1467 726.485 14.04L724.085 13.54C723.112 13.34 722.412 13.0067 721.985 12.54C721.572 12.0733 721.365 11.4933 721.365 10.8C721.365 10.2533 721.519 9.75333 721.825 9.3C722.145 8.84667 722.592 8.48667 723.165 8.22C723.752 7.94 724.439 7.8 725.225 7.8C726.212 7.8 727.045 7.99333 727.725 8.38C728.405 8.76667 728.912 9.31333 729.245 10.02L727.905 10.9C727.679 10.3133 727.312 9.88667 726.805 9.62C726.299 9.34 725.772 9.2 725.225 9.2C724.745 9.2 724.332 9.26667 723.985 9.4C723.652 9.53333 723.392 9.72 723.205 9.96C723.032 10.1867 722.945 10.4467 722.945 10.74C722.945 11.0333 723.045 11.3067 723.245 11.56C723.445 11.8 723.819 11.9733 724.365 12.08L726.865 12.6C727.799 12.7867 728.452 13.0933 728.825 13.52C729.199 13.9467 729.385 14.4667 729.385 15.08C729.385 15.7067 729.219 16.26 728.885 16.74C728.552 17.2067 728.085 17.5667 727.485 17.82C726.885 18.0733 726.192 18.2 725.405 18.2ZM733.152 6.08C732.792 6.08 732.499 5.97333 732.272 5.76C732.059 5.53333 731.952 5.24 731.952 4.88C731.952 4.52 732.059 4.23333 732.272 4.02C732.499 3.79333 732.792 3.68 733.152 3.68C733.512 3.68 733.799 3.79333 734.012 4.02C734.239 4.23333 734.352 4.52 734.352 4.88C734.352 5.24 734.239 5.53333 734.012 5.76C733.799 5.97333 733.512 6.08 733.152 6.08ZM733.952 8V18H732.352V8H733.952ZM741.805 7.8C742.751 7.8 743.585 8.00667 744.305 8.42C745.038 8.83333 745.611 9.43333 746.025 10.22C746.438 10.9933 746.645 11.92 746.645 13C746.645 14.08 746.438 15.0133 746.025 15.8C745.611 16.5733 745.038 17.1667 744.305 17.58C743.585 17.9933 742.751 18.2 741.805 18.2C740.871 18.2 740.038 17.9933 739.305 17.58C738.571 17.1667 737.998 16.5733 737.585 15.8C737.171 15.0133 736.965 14.08 736.965 13C736.965 11.92 737.171 10.9933 737.585 10.22C737.998 9.43333 738.571 8.83333 739.305 8.42C740.038 8.00667 740.871 7.8 741.805 7.8ZM741.805 9.18C741.125 9.18 740.545 9.33333 740.065 9.64C739.585 9.94667 739.211 10.3867 738.945 10.96C738.691 11.52 738.565 12.2 738.565 13C738.565 13.7867 738.691 14.4667 738.945 15.04C739.211 15.6133 739.585 16.0533 740.065 16.36C740.545 16.6667 741.125 16.82 741.805 16.82C742.485 16.82 743.065 16.6667 743.545 16.36C744.025 16.0533 744.391 15.6133 744.645 15.04C744.911 14.4667 745.045 13.7867 745.045 13C745.045 12.2 744.911 11.52 744.645 10.96C744.391 10.3867 744.025 9.94667 743.545 9.64C743.065 9.33333 742.485 9.18 741.805 9.18ZM749.657 18V8H751.057L751.197 10.24L750.937 10.02C751.15 9.48667 751.437 9.06 751.797 8.74C752.157 8.40667 752.57 8.16667 753.037 8.02C753.517 7.87333 754.01 7.8 754.517 7.8C755.237 7.8 755.89 7.94 756.477 8.22C757.064 8.48667 757.53 8.9 757.877 9.46C758.237 10.02 758.417 10.7333 758.417 11.6V18H756.817V12.16C756.817 11.0533 756.577 10.2867 756.097 9.86C755.63 9.42 755.05 9.2 754.357 9.2C753.877 9.2 753.397 9.31333 752.917 9.54C752.437 9.76667 752.037 10.1333 751.717 10.64C751.41 11.1467 751.257 11.8267 751.257 12.68V18H749.657ZM766.22 18.2C765.273 18.2 764.426 17.9933 763.68 17.58C762.946 17.1667 762.373 16.5733 761.96 15.8C761.546 15.0133 761.34 14.08 761.34 13C761.34 11.92 761.546 10.9933 761.96 10.22C762.373 9.43333 762.94 8.83333 763.66 8.42C764.38 8.00667 765.2 7.8 766.12 7.8C767.053 7.8 767.846 8 768.5 8.4C769.166 8.8 769.673 9.34667 770.02 10.04C770.366 10.72 770.54 11.4867 770.54 12.34C770.54 12.5667 770.533 12.7733 770.52 12.96C770.506 13.1467 770.486 13.3133 770.46 13.46H762.38V12.04H769.76L768.94 12.2C768.94 11.24 768.673 10.5 768.14 9.98C767.62 9.46 766.933 9.2 766.08 9.2C765.426 9.2 764.86 9.35333 764.38 9.66C763.913 9.95333 763.546 10.3867 763.28 10.96C763.026 11.52 762.9 12.2 762.9 13C762.9 13.7867 763.033 14.4667 763.3 15.04C763.566 15.6133 763.94 16.0533 764.42 16.36C764.913 16.6533 765.5 16.8 766.18 16.8C766.913 16.8 767.506 16.66 767.96 16.38C768.426 16.1 768.8 15.72 769.08 15.24L770.34 15.98C770.086 16.4333 769.76 16.8267 769.36 17.16C768.973 17.4933 768.513 17.7533 767.98 17.94C767.46 18.1133 766.873 18.2 766.22 18.2ZM775.103 3.4V15.46C775.103 15.9667 775.196 16.32 775.383 16.52C775.569 16.7067 775.869 16.8 776.283 16.8C776.549 16.8 776.769 16.78 776.943 16.74C777.116 16.7 777.349 16.6267 777.643 16.52L777.383 17.92C777.169 18.0133 776.936 18.08 776.683 18.12C776.429 18.1733 776.169 18.2 775.903 18.2C775.089 18.2 774.483 17.98 774.083 17.54C773.696 17.1 773.503 16.4267 773.503 15.52V3.4H775.103ZM786.016 3.4L779.896 19.4H778.396L784.516 3.4H786.016ZM787.706 6.58L797.226 11.08V12.94L787.706 17.44V15.8L795.946 12.04L787.706 8.26V6.58Z" fill="black"/>
<line x1="187" y1="48" x2="578" y2="48" stroke="#E2E2E2" stroke-width="20"/>
<line x1="187" y1="91" x2="578" y2="91" stroke="#E2E2E2" stroke-width="20"/>
<line x1="187" y1="134" x2="491" y2="134" stroke="#E2E2E2" stroke-width="20"/>
</svg>
